<?xml version="1.0" standalone="no"?>
<!DOCTYPE svg PUBLIC "-//W3C//DTD SVG 20010904//EN"
 "http://www.w3.org/TR/2001/REC-SVG-20010904/DTD/svg10.dtd">
<svg version="1.0" xmlns="http://www.w3.org/2000/svg"
 width="625.000000pt" height="419.000000pt" viewBox="0 0 625.000000 419.000000"
 preserveAspectRatio="xMidYMid meet">

<g transform="translate(0.000000,419.000000) scale(0.100000,-0.100000)"
fill="#007bff" stroke="none">
<path d="M1936 4155 c-38 -8 -86 -22 -105 -31 -110 -51 -137 -66 -196 -109
-87 -62 -183 -176 -234 -278 -57 -114 -67 -148 -82 -269 -35 -288 81 -561 314
-736 189 -143 407 -189 662 -140 80 15 213 76 294 135 5 3 -19 38 -56 80 l-28
33 -97 -49 c-108 -54 -181 -71 -304 -71 -142 1 -238 31 -365 115 -113 76 -210
206 -252 340 -29 94 -31 301 -3 385 38 113 87 192 174 278 134 132 270 188
457 186 138 -1 272 -41 359 -107 21 -16 30 -8 85 71 22 32 23 34 5 48 -33 25
-183 95 -237 110 -77 22 -306 27 -391 9z" fill="#8f5f34"/>
<path d="M2425 3680 l-310 -311 315 -309 c359 -353 321 -329 472 -291 393 101
588 532 403 890 -97 187 -321 331 -515 331 l-55 0 -310 -310z" fill="#522b08"/>
<path d="M4954 2894 c-8 -30 10 -54 27 -37 13 13 4 63 -11 63 -5 0 -13 -12
-16 -26z" fill="#8f5f34"/>
<path d="M3387 2880 c-59 -51 -70 -141 -31 -240 17 -43 68 -79 120 -86 l39 -5
-32 15 c-30 14 -53 33 -81 68 -22 27 -33 127 -22 185 10 44 16 53 46 68 35 16
43 16 107 -10 12 -5 17 -2 17 8 0 20 -21 27 -80 27 -40 0 -55 -5 -83 -30z" fill="#8f5f34" />
<path d="M4835 2799 c-4 -19 -15 -33 -26 -36 -19 -5 -19 -6 -1 -19 14 -10 20
-30 25 -84 6 -77 18 -100 50 -100 20 0 20 0 2 14 -14 10 -20 30 -23 79 -4 54
-1 68 15 84 19 19 19 20 2 32 -11 6 -19 22 -19 36 0 35 -17 31 -25 -6z" fill="#8f5f34"/>
<path d="M3811 2700 c1 -51 5 -105 9 -119 6 -22 8 -19 14 24 12 81 26 114 54
130 l27 14 -29 1 c-17 0 -40 10 -53 22 l-24 23 2 -95z" fill="#8f5f34"/>
<path d="M3950 2653 c0 -148 8 -243 20 -243 5 0 11 24 15 53 4 28 13 62 21 74
12 19 12 22 -5 28 -10 3 -22 16 -25 28 -10 36 -7 155 4 162 10 6 -11 35 -24
35 -3 0 -6 -62 -6 -137z" fill="#8f5f34"/>
<path d="M5321 2675 c0 -119 11 -134 24 -34 3 26 14 63 24 83 l19 36 -24 0
c-12 0 -28 8 -33 18 -8 12 -10 -17 -10 -103z" fill="#8f5f34"/>
<path d="M4456 2764 c-4 -9 -3 -60 1 -113 5 -81 8 -90 15 -61 23 97 39 137 61
148 21 10 20 11 -10 11 -17 1 -38 8 -46 16 -13 13 -16 13 -21 -1z" fill="#8f5f34"/>
<path d="M3648 2763 c7 -3 16 -2 19 1 4 3 -2 6 -13 5 -11 0 -14 -3 -6 -6z" fill="#8f5f34"/>
<path d="M4608 2762 c-49 -6 -30 -22 25 -22 28 0 60 -7 70 -14 21 -16 23 -55
2 -62 -13 -5 -12 -8 1 -22 10 -10 14 -26 11 -46 -4 -27 10 -56 27 -56 10 0 6
143 -5 183 -6 23 -16 38 -27 39 -32 3 -77 3 -104 0z" fill="#8f5f34"/>
<path d="M3566 2729 c-37 -44 -36 -101 3 -140 16 -16 35 -29 43 -29 9 1 7 5
-5 14 -45 35 -45 140 1 169 25 15 25 16 5 17 -12 0 -33 -14 -47 -31z" fill="#8f5f34"/>
<path d="M3700 2742 c16 -13 24 -32 27 -69 6 -61 -11 -92 -60 -110 -27 -10
-28 -12 -9 -12 65 -2 118 62 107 130 -7 39 -43 79 -72 79 -11 0 -8 -6 7 -18z" fill="#8f5f34"/>
<path d="M4218 2743 c-48 -30 -53 -109 -9 -153 58 -58 146 -49 180 19 11 21
18 46 16 57 -2 10 -4 25 -4 32 -1 21 -52 62 -75 61 -21 0 -21 0 1 -9 30 -12
43 -41 43 -92 0 -70 -52 -112 -110 -88 -58 24 -66 145 -12 175 15 8 20 14 12
14 -8 0 -27 -7 -42 -16z" fill="#8f5f34"/>
<path d="M4942 2743 c14 -16 25 -81 28 -168 l2 -30 8 27 c7 24 14 139 11 176
-1 7 -15 12 -33 12 -29 0 -30 -1 -16 -17z" fill="#8f5f34"/>
<path d="M5075 2736 c-52 -48 -39 -138 25 -171 112 -58 229 78 141 166 -16 16
-37 29 -46 29 -12 0 -8 -7 12 -24 25 -21 28 -31 26 -77 -1 -44 -6 -57 -28 -76
-56 -48 -115 -18 -122 64 -6 56 7 90 40 103 l22 9 -22 0 c-12 1 -34 -10 -48
-23z" fill="#8f5f34"/>
<path d="M5439 2734 c20 -25 24 -40 36 -137 4 -30 10 -45 17 -41 14 9 4 170
-12 189 -7 8 -23 15 -37 15 l-24 0 20 -26z" fill="#8f5f34"/>
<path d="M4073 2726 c38 -35 43 -69 18 -111 -23 -40 -21 -42 20 -18 56 33 51
97 -10 131 -51 29 -60 28 -28 -2z" fill="#8f5f34"/>
<path d="M4616 2624 c-22 -21 -20 -51 3 -63 24 -13 33 -4 18 20 -9 15 -9 24 1
39 15 24 0 27 -22 4z" fill="#8f5f34"/>
<path d="M5287 2313 c-42 -45 -98 -175 -372 -868 -46 -115 -99 -252 -119 -302
-20 -51 -52 -135 -72 -185 -42 -107 -162 -427 -226 -603 -24 -66 -49 -120 -56
-120 -6 0 -143 164 -303 365 -161 201 -307 383 -326 405 -54 64 -93 150 -93
209 0 77 30 131 242 430 398 563 398 563 398 594 0 34 -27 62 -59 62 -39 0
-74 -26 -160 -117 -47 -48 -244 -251 -439 -450 -264 -270 -362 -364 -384 -369
-46 -9 -81 21 -89 77 -3 24 -3 217 1 429 4 212 7 386 5 388 -7 8 -365 6 -368
-3 -3 -5 0 -80 4 -165 5 -85 15 -324 24 -530 9 -206 22 -514 30 -685 8 -171
20 -420 26 -555 12 -262 19 -295 64 -306 82 -21 99 19 131 300 56 507 61 534
106 571 42 35 111 35 164 -1 34 -23 232 -208 534 -499 212 -205 316 -303 353
-335 l38 -33 42 41 c24 23 50 42 58 42 9 0 56 -16 105 -35 49 -19 94 -33 99
-31 6 2 67 115 135 250 131 258 173 325 229 363 67 45 119 53 351 53 189 0
224 -2 274 -20 139 -47 168 -84 392 -485 43 -77 88 -150 101 -163 42 -42 113
-19 113 39 0 91 -248 824 -470 1389 -27 69 -74 190 -105 270 -222 567 -244
610 -317 610 -24 0 -42 -8 -61 -27z m86 -553 c20 -52 61 -164 91 -247 51 -139
206 -596 206 -608 0 -3 -109 -5 -242 -5 -236 0 -245 1 -295 24 -54 25 -71 47
-84 106 -18 76 19 195 206 675 26 66 51 131 56 144 13 34 22 21 62 -89z" fill="#201400"/>
<path d="M990 2269 c-144 -14 -317 -61 -423 -115 -120 -62 -280 -195 -352
-294 -73 -99 -150 -271 -181 -405 -28 -117 -25 -344 5 -484 51 -241 154 -427
328 -591 257 -244 664 -386 1009 -350 181 18 251 46 285 113 20 39 21 51 16
192 -9 225 -63 643 -99 764 -8 25 -25 52 -40 64 -23 17 -29 18 -54 6 -16 -8
-34 -25 -40 -39 -11 -24 -42 -282 -83 -701 -10 -103 -22 -192 -26 -199 -6 -10
-30 -11 -99 -7 -329 22 -611 218 -770 535 -134 267 -139 730 -10 995 80 165
198 262 370 303 97 24 296 24 393 1 142 -34 318 -122 455 -227 36 -28 71 -50
77 -50 9 0 10 21 5 77 -3 42 -6 129 -6 193 l0 118 -57 21 c-195 72 -468 103
-703 80z" fill="#201400"/>
<path d="M2204 2270 c-34 -14 -73 -68 -91 -128 -25 -80 -22 -271 16 -922 17
-294 38 -668 47 -830 9 -162 18 -305 20 -317 4 -21 10 -23 80 -23 51 0 76 4
79 12 2 7 11 148 20 313 17 327 28 535 50 895 33 534 39 734 26 811 -22 132
-82 200 -177 198 -27 0 -58 -4 -70 -9z" fill="#201400"/>
</g>
</svg>
